<svg xmlns="http://www.w3.org/2000/svg" width="32" height="32" viewBox="0 0 100 100">
<g fill="#2A1C0E" stroke="#2A1C0E" stroke-width="3.4" stroke-linejoin="round" stroke-linecap="round"><ellipse cx="13.1" cy="47.6" rx="11.8" ry="17.0" transform="rotate(-23 13.1 47.6)"/><ellipse cx="33.3" cy="18.7" rx="12.8" ry="18.2" transform="rotate(-14 33.3 18.7)"/><ellipse cx="65.6" cy="18.5" rx="13.0" ry="18.1" transform="rotate(12 65.6 18.5)"/><ellipse cx="86.6" cy="45.8" rx="12.1" ry="17.1" transform="rotate(21 86.6 45.8)"/><path d="M49.77 50.45C50.87 50.55 54.46 50.61 56.39 51.06C58.32 51.52 59.62 52.17 61.35 53.18C63.08 54.19 64.96 55.50 66.77 57.12C68.58 58.74 70.03 60.13 72.18 62.88C74.34 65.63 77.82 70.53 79.70 73.64C81.58 76.75 82.68 79.68 83.46 81.52C84.24 83.36 84.19 83.34 84.36 84.70C84.53 86.06 84.73 88.26 84.51 89.70C84.29 91.14 83.84 92.30 83.01 93.33C82.18 94.36 81.03 95.33 79.55 95.91C78.07 96.49 75.54 96.74 74.14 96.82C72.74 96.89 73.69 97.24 71.13 96.36C68.57 95.48 62.03 92.45 58.80 91.52C55.57 90.59 53.76 90.76 51.73 90.76C49.70 90.76 49.90 90.59 46.62 91.52C43.34 92.45 35.36 95.53 32.03 96.36C28.70 97.19 28.10 96.75 26.62 96.52C25.14 96.29 24.11 95.61 23.16 95.00C22.21 94.39 21.63 94.07 20.90 92.88C20.17 91.69 19.07 89.55 18.80 87.88C18.53 86.21 18.67 85.23 19.25 82.88C19.83 80.53 20.86 76.92 22.26 73.79C23.66 70.66 25.94 66.72 27.67 64.09C29.40 61.46 30.93 59.70 32.63 58.03C34.33 56.36 36.19 55.12 37.89 54.09C39.59 53.06 40.91 52.40 42.86 51.82C44.81 51.24 48.47 50.84 49.62 50.61C50.77 50.38 48.64 50.38 49.77 50.45Z"/></g>
<g fill="#F6E2BC"><ellipse cx="13.1" cy="47.6" rx="11.8" ry="17.0" transform="rotate(-23 13.1 47.6)"/><ellipse cx="33.3" cy="18.7" rx="12.8" ry="18.2" transform="rotate(-14 33.3 18.7)"/><ellipse cx="65.6" cy="18.5" rx="13.0" ry="18.1" transform="rotate(12 65.6 18.5)"/><ellipse cx="86.6" cy="45.8" rx="12.1" ry="17.1" transform="rotate(21 86.6 45.8)"/><path d="M49.77 50.45C50.87 50.55 54.46 50.61 56.39 51.06C58.32 51.52 59.62 52.17 61.35 53.18C63.08 54.19 64.96 55.50 66.77 57.12C68.58 58.74 70.03 60.13 72.18 62.88C74.34 65.63 77.82 70.53 79.70 73.64C81.58 76.75 82.68 79.68 83.46 81.52C84.24 83.36 84.19 83.34 84.36 84.70C84.53 86.06 84.73 88.26 84.51 89.70C84.29 91.14 83.84 92.30 83.01 93.33C82.18 94.36 81.03 95.33 79.55 95.91C78.07 96.49 75.54 96.74 74.14 96.82C72.74 96.89 73.69 97.24 71.13 96.36C68.57 95.48 62.03 92.45 58.80 91.52C55.57 90.59 53.76 90.76 51.73 90.76C49.70 90.76 49.90 90.59 46.62 91.52C43.34 92.45 35.36 95.53 32.03 96.36C28.70 97.19 28.10 96.75 26.62 96.52C25.14 96.29 24.11 95.61 23.16 95.00C22.21 94.39 21.63 94.07 20.90 92.88C20.17 91.69 19.07 89.55 18.80 87.88C18.53 86.21 18.67 85.23 19.25 82.88C19.83 80.53 20.86 76.92 22.26 73.79C23.66 70.66 25.94 66.72 27.67 64.09C29.40 61.46 30.93 59.70 32.63 58.03C34.33 56.36 36.19 55.12 37.89 54.09C39.59 53.06 40.91 52.40 42.86 51.82C44.81 51.24 48.47 50.84 49.62 50.61C50.77 50.38 48.64 50.38 49.77 50.45Z"/></g>
</svg>
